# xmcd
#
# Track frame offsets:
#	150
#	16487
#	33522
#	53377
#	69297
#	87168
#	106313
#	119897
#	135778
#	152365
#	169915
#	187521
#	203540
#	230846
#	249376
#
# Disc length: 3648 seconds
#
# Revision: 0
# Processed by: cddbd v1.5.2PL0 Copyright (c) Steve Scherf et al.
# Submitted via: audiograbber 1.83.01
#
DISCID=b20e3e0f
DTITLE=Various Artist - Extreme Country
DYEAR=2011
DGENRE=Country
TTITLE0=Mindy Ellis - GirlzGonne Wild
TTITLE1=Andrea Childress - Cowboy Up
TTITLE2=Brandi Nicole - DJDJ
TTITLE3=Andrea Childress - Other Side Of Midnight
TTITLE4=Amy Bonner - The Wonder Of Love
TTITLE5=Bart Hansen - Slo Ride
TTITLE6=Romany Saylor - Let's Get This Started (Radio Mixx)
TTITLE7=Craig Campbell - Baby I'm Your Man
TTITLE8=Mindy Ellis - That's The Way
TTITLE9=Lauri Killian Starr - This Girlz Gone
TTITLE10=Lauri Killian Starr - What Cha Gonne Do
TTITLE11=Melissa Fuller - Workin' On A Better Day
TTITLE12=Andrea Childress - Cowboy Up (Eurotwang Mixx)
TTITLE13=Craig Campbell - Let's Get This Started (Hit The Club Mixx)
TTITLE14=Bart Hansen - Slo Ride (Extreme Country Mixx)
EXTD=
EXTT0=
EXTT1=
EXTT2=
EXTT3=
EXTT4=
EXTT5=
EXTT6=
EXTT7=
EXTT8=
EXTT9=
EXTT10=
EXTT11=
EXTT12=
EXTT13=
EXTT14=
PLAYORDER=
